<?xml version="1.0" encoding="utf-8"?>
<!-- Generator: Adobe Illustrator 27.0.0, SVG Export Plug-In . SVG Version: 6.00 Build 0)  -->
<svg version="1.1" id="Layer_1" xmlns="http://www.w3.org/2000/svg" xmlns:xlink="http://www.w3.org/1999/xlink" x="0px" y="0px"
	 viewBox="0 0 469.33 138.67" style="enable-background:new 0 0 469.33 138.67;" xml:space="preserve">
<style type="text/css">
	.st0{fill:#008789;}
</style>
<path class="st0" d="M76.02,87.72c-6.1,1.47-12.83,3.2-23.84,3.2c-21.33,0-46.07-10.77-46.07-41.21c0-27.87,19.57-41.78,46-41.78
	c8.19,0,16.11,1.81,23.79,4.12l-1.72,17.4c-6.89-3.8-13.55-5.7-20.91-5.7c-15.2,0-25.07,11.09-25.07,25.97
	c0,15.79,11.19,25.4,26.81,25.4c7.05,0,14.15-1.92,20.03-4.21 M86.84,89.58h21.42V9.32H86.84V89.58z M124.18,89.57h29.22
	c27.38,0,47.48-10.42,47.48-40.47c0-31.08-19.57-39.78-47.48-39.78h-29.22 M145.59,25.16h8.32c15.58,0,24.89,8.3,24.89,24.26
	c0,15.94-8.97,24.25-24.89,24.25h-8.32V25.16z M213.07,89.58h33.8c14.31,0,31.25-4.09,31.25-23.22c0-9.83-5.56-15.54-16.19-17.78
	v-0.17c8.96-3.03,14.18-8.66,14.18-18.76c0-13.81-11.22-20.33-26.16-20.33h-36.88 M234.44,24.44h6.26c7.09,0,13.98,0.72,13.98,8.1
	c0,6.78-7.25,8.51-14.28,8.51h-5.96V24.44z M234.44,55.49h6.57c7.34,0,15.75,0.82,15.75,9.56c0,8.12-8.17,9.35-16.02,9.35h-6.29
	V55.49z M6.11,131.21h5.8l-0.15-17.11h0.1l5.4,17.11h5.45l5.67-17.11h0.06l-0.08,17.11h5.78v-22.2h-8.96l-4.95,14.69h-0.11
	l-4.68-14.69H6.11 M50.66,131.21h6l1.74-4.75h8.39l1.62,4.75h6.55l-8.6-22.2h-7.22 M65.39,122.24h-5.58l2.85-8.68h0.11L65.39,122.24
	z M91.57,131.21h15.12v-4.42h-9.21v-17.78h-5.92 M121.81,131.21h5.97l1.78-4.75h8.37l1.63,4.75h6.51l-8.54-22.2h-7.33
	 M136.51,122.24h-5.55l2.9-8.68L136.51,122.24z M166.08,131.22H172v-8.45l8.18-13.76h-6.82l-4.29,8.87l-4.37-8.87h-6.88l8.26,13.76
	 M196.48,130.59c1.9,0.69,4.53,0.98,6.63,0.98c4.89,0,9.77-1.55,9.77-7.34c0-8.02-10.51-5.62-10.51-9.18c0-1.98,2.5-2.07,3.99-2.07
	c1.65,0,3.42,0.29,4.95,1l0.38-4.51c-1.49-0.58-3.59-0.84-5.77-0.84c-4.38,0-9.64,1.39-9.64,6.8c0,8.06,10.5,5.46,10.5,9.62
	c0,1.74-1.74,2.15-3.65,2.15c-2.46,0-4.57-0.65-6.15-1.46 M231.01,131.21h5.89v-22.2h-5.89V131.21z M253.87,131.21h6l1.79-4.75H270
	l1.62,4.75h6.49l-8.52-22.2h-7.3 M268.55,122.24h-5.54l2.86-8.68h0.08L268.55,122.24z M462.35,60.37l-46.2,72.49h-33.94
	l-13.91-19.48l-10.35,19.11h-36.66l-31.01-49.43l44.99-76.45h39.03l10.38,18.73l11.15-18.38h37.85 M399,15.34L374.72,54.4h21.89
	l13.92-23.08L399,15.34 M380.68,32.08l-10.37-17.92l-23.9,40.66h19.89L380.68,32.08 M355.15,122.5l20.35-37.03h-20.35l-12.34,19.88
	L355.15,122.5 M372.68,106.23l12.4,18.28l21.46-39.04h-22.68L372.68,106.23 M454.35,59.55l-25.04-45.8h-22.33l11.54,16.76
	l-17.9,31.08h-66.55l27.81-48.24h-23.07L298.6,82.63l26.69,43.48h23.55l-13.94-20.3l16.31-27.11h67.69l-26.69,46.98h19.9
	L454.35,59.55z"/>
</svg>
